<svg xmlns="http://www.w3.org/2000/svg" width="143.522" height="178.783" viewBox="0 0 143.522 178.783">
  <g id="Group_1313" data-name="Group 1313" opacity="0.43">
    <path id="Path_3533" data-name="Path 3533" d="M88.8,120.3" transform="translate(-22.571 -30.597)" fill="none" stroke="#000" stroke-linejoin="round" stroke-miterlimit="10" stroke-width="1.512"/>
    <path id="Path_3534" data-name="Path 3534" d="M88.4,125.3" transform="translate(-22.469 -31.87)" fill="none" stroke="#000" stroke-linejoin="round" stroke-miterlimit="10" stroke-width="1.512"/>
    <path id="Path_3535" data-name="Path 3535" d="M105.912,194.473h0a2.139,2.139,0,0,1-2.236-1.938L96,119.635a2.139,2.139,0,0,1,1.938-2.236h0a2.139,2.139,0,0,1,2.236,1.938l7.678,72.9A2.093,2.093,0,0,1,105.912,194.473Z" transform="translate(-24.402 -29.857)" fill="#b3b8bd"/>
    <path id="Path_3536" data-name="Path 3536" d="M164.352,201.356h0a2.338,2.338,0,0,0,1.193-2.982L133.12,123.238a2.338,2.338,0,0,0-2.982-1.193h0a2.338,2.338,0,0,0-1.193,2.982l32.425,75.137A2.338,2.338,0,0,0,164.352,201.356Z" transform="translate(-32.751 -31)" fill="#b3b8bd"/>
    <path id="Path_3537" data-name="Path 3537" d="M20.091,201.692h0a2.235,2.235,0,0,1-1.342-2.907l28.7-79.684a2.237,2.237,0,0,1,2.907-1.342,2.08,2.08,0,0,1,1.342,2.907L23,200.35A2.208,2.208,0,0,1,20.091,201.692Z" transform="translate(-4.698 -29.92)" fill="#b3b8bd"/>
    <path id="Path_3538" data-name="Path 3538" d="M85.386,210.189h0A2.245,2.245,0,0,1,83.3,207.8l1.64-82.218a2.245,2.245,0,0,1,2.385-2.087h0a2.245,2.245,0,0,1,2.087,2.385L87.845,208.1A2.269,2.269,0,0,1,85.386,210.189Z" transform="translate(-21.169 -31.41)" fill="#b3b8bd"/>
    <g id="Group_1312" data-name="Group 1312" transform="translate(0 0)">
      <path id="Path_3539" data-name="Path 3539" d="M2.565,31.893s6.112-3.727,9.616-16.1C15.684,3.493,23.66.958,32.9.138S51.538.884,65.776,13.481c20.275,17.964,57.471,16.4,61.57,17.442a11.492,11.492,0,0,1,8.349,8.572l1.864,8.2L143.148,74.6l.522,2.311-1.416,5.591L138.9,85.934a94.846,94.846,0,0,1-29.518,5.591l-17.442.522L74.2,92.568,58.843,88.692,48.333,75.648,35.661,41.508l-13.79-3.652L2.64,36.067,1,33.309Z" transform="translate(-0.217 0.042)" fill="#e4eaef"/>
      <path id="Path_3540" data-name="Path 3540" d="M20.7,50.7l3.652,25.94L25.4,81.485a23.6,23.6,0,0,0,21.095,18.784l15.43,1.342L51.783,85.883l-7.9-25.344L37.248,51.52Z" transform="translate(-5.233 -12.877)" fill="#52575d"/>
      <path id="Path_3541" data-name="Path 3541" d="M2.3,42.8s-2.385,1.864,1.118,2.236c22.213,2.013,28.623,3.727,28.623,3.727s6.56.745,9.988,13.939c3.578,13.715,6.783,28.176,16.1,34.065,9.019,5.665,23.182,5.143,23.182,5.143s32.723,1.044,54.191-5.218a10.705,10.705,0,0,0,4.92-2.907,9.009,9.009,0,0,0,2.385-8.125s3.876,10.212-7.081,13.641c0,0-10.808,4.621-37.792,5.441-27.058.745-33.021.075-44.426-6.634,0,0-7.156-5.441-10.808-21.244,0,0-5.292-20.126-9.467-23.331-2.982-2.311-6.261-3.205-21.095-4.323,0,0-10.585-.3-11.926-2.982C-.982,43.62,2.3,42.8,2.3,42.8Z" transform="translate(0.05 -10.865)" fill="#b3b8bd"/>
    </g>
  </g>
</svg>
