<svg xmlns="http://www.w3.org/2000/svg" width="163.08" height="24.84" viewBox="0 0 163.08 24.84">
  <path id="Path_15" data-name="Path 15" d="M17.676-3.78H9.54L8.46,0H.54l8.5-24.84H18.9L27.4,0h-8.64Zm-1.512-5.4-2.376-8.46h-.36L11.052-9.18ZM45.9,0,42.012-7.02H40.5V0H32.94V-24.84h9q5.112,0,7.866,2.3a8.108,8.108,0,0,1,2.754,6.588,9.241,9.241,0,0,1-1.08,4.59,7.455,7.455,0,0,1-3.168,3.006L54.18,0ZM40.5-13.14h1.26a3.205,3.205,0,0,0,2.268-.738,2.69,2.69,0,0,0,.792-2.07A2.632,2.632,0,0,0,44.028-18a3.257,3.257,0,0,0-2.268-.72H40.5Zm22.464-5.58h-6.12v-6.12h19.8v6.12h-6.12V0h-7.56Zm19.224-6.12h7.56V0h-7.56Zm15.264,0h7.56l6.48,11.16h.36V-24.84h7.56V0h-6.84l-7.2-12.24h-.36V0h-7.56Zm29.664,0H137.2q5.868,0,9.054,3.222t3.186,9.2q0,5.976-3.186,9.2T137.2,0h-10.08Zm9.216,18.72a4.933,4.933,0,0,0,3.96-1.638,6.957,6.957,0,0,0,1.4-4.662,6.957,6.957,0,0,0-1.4-4.662,4.933,4.933,0,0,0-3.96-1.638h-1.656v12.6ZM156.06-24.84h7.56V0h-7.56Z" transform="translate(-0.54 24.84)" fill="#fff"/>
</svg>
