<svg xmlns="http://www.w3.org/2000/svg" width="102.325" height="77.612" viewBox="0 0 102.325 77.612">
  <g id="_46.-Quotes" data-name="46.-Quotes" transform="translate(102.43 90.208) rotate(180)" opacity="0.07">
    <g id="Group_228" data-name="Group 228" transform="translate(2.164 14.596)">
      <path id="Layer-1" d="M12.261,74.208c-.981,0-4.479-5.56-4.479-6.562C34.724,47,30.473,42.737,30.631,42.1s-8.74,2.421-14.034,1C4.655,39.885-2.341,27.915,1,16.419A22.444,22.444,0,0,1,22.64.6a23.322,23.322,0,0,1,6.069.806c7.875,2.119,13.8,8.415,16.673,17.722,2.6,8.4,2.531,18.559-.175,27.881C37.114,68.414,13.242,74.208,12.261,74.208Z" transform="translate(-0.164 -0.596)" fill="none" stroke="#fff" stroke-linecap="round" stroke-linejoin="round" stroke-width="4" fill-rule="evenodd"/>
      <path id="Layer-2" d="M61.687,74.208c-.981,0-4.479-5.56-4.479-6.562C84.15,47,79.9,42.737,80.057,42.1s-8.74,2.421-14.034,1c-11.942-3.217-18.938-15.187-15.6-26.684A22.444,22.444,0,0,1,72.066.6a23.322,23.322,0,0,1,6.069.806c7.875,2.119,13.8,8.415,16.673,17.722,2.6,8.4,2.532,18.559-.175,27.881C86.54,68.414,62.668,74.208,61.687,74.208Z" transform="translate(1.457 -0.596)" fill="none" stroke="#fff" stroke-linecap="round" stroke-linejoin="round" stroke-width="4" fill-rule="evenodd"/>
    </g>
  </g>
</svg>
