<svg id="ic_rating" xmlns="http://www.w3.org/2000/svg" width="138.172" height="21.651" viewBox="0 0 138.172 21.651">
  <path id="star_1_" data-name="star(1)" d="M22.534,8.673A1.2,1.2,0,0,0,21.5,7.848L14.98,7.255,12.4,1.22a1.2,1.2,0,0,0-2.208,0L7.614,7.255l-6.522.592a1.2,1.2,0,0,0-.682,2.1l4.929,4.323-1.453,6.4a1.2,1.2,0,0,0,1.786,1.3L11.3,18.61l5.623,3.362a1.2,1.2,0,0,0,1.787-1.3l-1.453-6.4L22.182,9.95a1.2,1.2,0,0,0,.352-1.276Zm0,0" transform="translate(0 -0.491)" fill="#ffc107"/>
  <path id="star_1_2" data-name="star(1)" d="M22.534,8.673A1.2,1.2,0,0,0,21.5,7.848L14.98,7.255,12.4,1.22a1.2,1.2,0,0,0-2.208,0L7.614,7.255l-6.522.592a1.2,1.2,0,0,0-.682,2.1l4.929,4.323-1.453,6.4a1.2,1.2,0,0,0,1.786,1.3L11.3,18.61l5.623,3.362a1.2,1.2,0,0,0,1.787-1.3l-1.453-6.4L22.182,9.95a1.2,1.2,0,0,0,.352-1.276Zm0,0" transform="translate(28.895 -0.491)" fill="#ffc107"/>
  <path id="star_1_3" data-name="star(1)" d="M22.534,8.673A1.2,1.2,0,0,0,21.5,7.848L14.98,7.255,12.4,1.22a1.2,1.2,0,0,0-2.208,0L7.614,7.255l-6.522.592a1.2,1.2,0,0,0-.682,2.1l4.929,4.323-1.453,6.4a1.2,1.2,0,0,0,1.786,1.3L11.3,18.61l5.623,3.362a1.2,1.2,0,0,0,1.787-1.3l-1.453-6.4L22.182,9.95a1.2,1.2,0,0,0,.352-1.276Zm0,0" transform="translate(57.789 -0.491)" fill="#ffc107"/>
  <path id="star_1_4" data-name="star(1)" d="M22.534,8.673A1.2,1.2,0,0,0,21.5,7.848L14.98,7.255,12.4,1.22a1.2,1.2,0,0,0-2.208,0L7.614,7.255l-6.522.592a1.2,1.2,0,0,0-.682,2.1l4.929,4.323-1.453,6.4a1.2,1.2,0,0,0,1.786,1.3L11.3,18.61l5.623,3.362a1.2,1.2,0,0,0,1.787-1.3l-1.453-6.4L22.182,9.95a1.2,1.2,0,0,0,.352-1.276Zm0,0" transform="translate(86.684 -0.491)" fill="#ffc107"/>
  <path id="star_1_5" data-name="star(1)" d="M22.534,8.673A1.2,1.2,0,0,0,21.5,7.848L14.98,7.255,12.4,1.22a1.2,1.2,0,0,0-2.208,0L7.614,7.255l-6.522.592a1.2,1.2,0,0,0-.682,2.1l4.929,4.323-1.453,6.4a1.2,1.2,0,0,0,1.786,1.3L11.3,18.61l5.623,3.362a1.2,1.2,0,0,0,1.787-1.3l-1.453-6.4L22.182,9.95a1.2,1.2,0,0,0,.352-1.276Zm0,0" transform="translate(115.579 -0.491)" fill="#ffc107"/>
</svg>
