<svg id="Responsive" xmlns="http://www.w3.org/2000/svg" width="82" height="82" viewBox="0 0 82 82">
  <g id="Group_41381" data-name="Group 41381" transform="translate(36.195 55.414)">
    <g id="Group_41380" data-name="Group 41380">
      <path id="Path_398" data-name="Path 398" d="M234.008,346H227.6a1.6,1.6,0,0,0,0,3.2h6.406a1.6,1.6,0,0,0,0-3.2Z" transform="translate(-226 -346)" fill="#f1bc1e"/>
    </g>
  </g>
  <g id="Group_41383" data-name="Group 41383">
    <g id="Group_41382" data-name="Group 41382">
      <path id="Path_399" data-name="Path 399" d="M77.2,6.406H32.031V4.8a4.81,4.81,0,0,0-4.8-4.8H4.8A4.81,4.81,0,0,0,0,4.8V60.219a4.81,4.81,0,0,0,4.8,4.8H32.992v7.528A8.032,8.032,0,0,0,26.747,78.8H21.781a1.6,1.6,0,0,0,0,3.2H60.219a1.6,1.6,0,0,0,0-3.2H55.253a8.032,8.032,0,0,0-6.245-6.245V65.023H77.2a4.81,4.81,0,0,0,4.8-4.8V11.211A4.81,4.81,0,0,0,77.2,6.406ZM3.2,4.8A1.6,1.6,0,0,1,4.8,3.2H27.227a1.6,1.6,0,0,1,1.6,1.6v4.8H3.2Zm0,8.008H28.828V42.6H3.2ZM3.2,45.8H28.828v8.008a1.6,1.6,0,0,1-1.6,1.6H4.8a1.6,1.6,0,0,1-1.6-1.6ZM51.935,78.8H30.065a4.812,4.812,0,0,1,4.529-3.2H47.406A4.812,4.812,0,0,1,51.935,78.8ZM36.2,72.391V65.023H45.8v7.367ZM78.8,60.219a1.6,1.6,0,0,1-1.6,1.6H4.8a1.6,1.6,0,0,1-1.6-1.6V58.342a4.782,4.782,0,0,0,1.6.275H27.227a4.81,4.81,0,0,0,4.8-4.8V52.051H78.8Zm0-11.371H32.031V9.609H77.2a1.6,1.6,0,0,1,1.6,1.6Z" fill="#f1bc1e"/>
    </g>
  </g>
  <g id="Group_41385" data-name="Group 41385" transform="translate(12.813 49.008)">
    <g id="Group_41384" data-name="Group 41384">
      <path id="Path_400" data-name="Path 400" d="M84.8,306H81.6a1.6,1.6,0,0,0,0,3.2h3.2a1.6,1.6,0,0,0,0-3.2Z" transform="translate(-80 -306)" fill="#f1bc1e"/>
    </g>
  </g>
</svg>
