<svg xmlns="http://www.w3.org/2000/svg" width="29.57" height="24.025" viewBox="0 0 29.57 24.025">
  <g id="twitter" transform="translate(0 -48)">
    <g id="Group_41363" data-name="Group 41363" transform="translate(0 48)">
      <path id="Path_14" data-name="Path 14" d="M29.57,50.844a12.639,12.639,0,0,1-3.493.957,6.028,6.028,0,0,0,2.667-3.351A12.115,12.115,0,0,1,24.9,49.918a6.062,6.062,0,0,0-10.486,4.145,6.242,6.242,0,0,0,.14,1.382,17.159,17.159,0,0,1-12.5-6.341,6.064,6.064,0,0,0,1.863,8.1,5.987,5.987,0,0,1-2.739-.747v.067A6.09,6.09,0,0,0,6.04,62.484a6.05,6.05,0,0,1-1.589.2,5.36,5.36,0,0,1-1.148-.1A6.12,6.12,0,0,0,8.967,66.8a12.181,12.181,0,0,1-7.516,2.586A11.354,11.354,0,0,1,0,69.3a17.066,17.066,0,0,0,9.3,2.72c11.155,0,17.254-9.241,17.254-17.25,0-.268-.009-.527-.022-.784A12.094,12.094,0,0,0,29.57,50.844Z" transform="translate(0 -48)" fill="#fff"/>
    </g>
  </g>
</svg>
