<svg xmlns="http://www.w3.org/2000/svg" width="26.41" height="18.491" viewBox="0 0 26.41 18.491"><path d="M25.867-3.189a3.309,3.309,0,0,0-2.328-2.328c-2.067-.565-10.334-.565-10.334-.565s-8.267,0-10.333.544A3.376,3.376,0,0,0,.545-3.189,34.863,34.863,0,0,0,0,3.164,34.735,34.735,0,0,0,.545,9.516a3.309,3.309,0,0,0,2.328,2.328c2.088.566,10.333.566,10.333.566s8.267,0,10.333-.544a3.309,3.309,0,0,0,2.328-2.328,34.874,34.874,0,0,0,.544-6.352,33.094,33.094,0,0,0-.544-6.374ZM10.573,7.123V-.8l6.874,3.959Zm0,0" transform="translate(-0.001 6.082)" fill="#fff"/></svg>